<?xml version="1.0" encoding="utf-8"?>
<!-- Generator: Adobe Illustrator 16.0.0, SVG Export Plug-In . SVG Version: 6.00 Build 0)  -->
<!DOCTYPE svg PUBLIC "-//W3C//DTD SVG 1.1//EN" "http://www.w3.org/Graphics/SVG/1.1/DTD/svg11.dtd">
<svg version="1.1" id="Layer_1" xmlns="http://www.w3.org/2000/svg" xmlns:xlink="http://www.w3.org/1999/xlink" x="0px" y="0px"
	 width="376.41px" height="81.65px" viewBox="0 0 376.41 81.65" enable-background="new 0 0 376.41 81.65" xml:space="preserve">
<path fill="#B7B7B7" d="M48.312,25.203H20.879c-8.737,0-13.104,2.617-13.104,7.848v22.032c0,5.424,4.56,8.136,13.68,8.136h26.856
	c2.399,0,3.6,0.985,3.6,2.952c0,1.97-1.201,2.951-3.6,2.951H21.095c-14.064,0-21.096-4.606-21.096-13.824V32.907
	c0-9.072,6.912-13.608,20.736-13.608h27.576c2.399,0,3.6,0.984,3.6,2.952C51.912,24.22,50.711,25.203,48.312,25.203L48.312,25.203z
	 M110.302,69.483c-2.591,0-3.887-1.008-3.887-3.025V45.436c0-3.601-3.385-5.4-10.152-5.4H70.126v26.423
	c0,2.019-1.272,3.025-3.816,3.025c-2.545,0-3.816-1.008-3.816-3.025V20.955c0-2.016,1.271-3.022,3.816-3.022
	c2.543,0,3.816,1.008,3.816,3.022v13.176h25.416c12.385,0,18.576,3.816,18.576,11.449v20.878
	C114.118,68.476,112.847,69.483,110.302,69.483L110.302,69.483z M129.742,28.659c-2.784,0-4.177-1.152-4.177-3.456
	c0-2.305,1.393-3.456,4.177-3.456c2.783,0,4.176,1.151,4.176,3.456C133.918,27.507,132.525,28.659,129.742,28.659L129.742,28.659z
	 M129.742,33.771c2.544,0,3.815,1.008,3.815,3.022v29.663c0,2.019-1.271,3.025-3.815,3.025c-2.545,0-3.816-1.008-3.816-3.025V36.795
	C125.926,34.779,127.197,33.771,129.742,33.771L129.742,33.771z M178.485,69.122h-25.416v9.504c0,2.019-1.272,3.025-3.816,3.025
	c-2.545,0-3.816-1.008-3.816-3.025V45.58c0-7.633,6.193-11.449,18.576-11.449h14.473c12.383,0,18.577,3.816,18.577,11.449v12.167
	C197.063,65.331,190.868,69.122,178.485,69.122L178.485,69.122z M189.355,45.508c0-3.647-3.552-5.473-10.654-5.473h-14.976
	c-7.105,0-10.656,1.824-10.656,5.473V63.29h25.632c7.103,0,10.654-1.821,10.654-5.471V45.508L189.355,45.508z M232.484,23.763
	h-6.121c-6.622,0-9.936,1.681-9.936,5.04v5.616h16.057c2.4,0,3.601,0.937,3.601,2.808c0,1.872-1.198,2.809-3.601,2.809h-16.057
	v26.423c0,2.019-1.225,3.025-3.672,3.025c-2.641,0-3.959-1.008-3.959-3.025V28.875c0-7.2,5.855-10.8,17.566-10.8h6.121
	c2.399,0,3.6,0.938,3.6,2.808C236.085,22.803,234.887,23.763,232.484,23.763L232.484,23.763z M276.333,69.122h-13.896
	c-12.433,0-18.646-3.791-18.646-11.375V45.58c0-7.633,6.215-11.449,18.646-11.449h13.896c12.433,0,18.647,3.816,18.647,11.449
	v12.167C294.98,65.331,288.766,69.122,276.333,69.122L276.333,69.122z M287.275,45.508c0-3.647-3.573-5.473-10.727-5.473h-14.4
	c-7.104,0-10.655,1.824-10.655,5.473V57.82c0,3.647,3.553,5.471,10.655,5.471h14.4c7.152,0,10.727-1.821,10.727-5.471V45.508
	L287.275,45.508z M355.391,39.314L337.46,51.555l17.856,12.313c0.67,0.527,1.14,1.021,1.404,1.476
	c0.262,0.456,0.396,0.877,0.396,1.26c0,1.922-1.296,2.881-3.888,2.881c-0.576,0-1.129-0.072-1.656-0.217
	c-0.528-0.146-1.057-0.433-1.584-0.863l-18.793-12.961l-19.149,13.033c-1.01,0.719-2.019,1.055-3.024,1.008
	c-2.496,0-3.744-0.959-3.744-2.881c0-0.383,0.119-0.791,0.359-1.224c0.239-0.434,0.694-0.889,1.368-1.368l18.433-12.601
	l-17.353-12.023c-0.722-0.479-1.2-0.959-1.438-1.439c-0.242-0.479-0.361-0.912-0.361-1.296c0-1.92,1.297-2.88,3.889-2.88
	c0.672,0,1.234,0.084,1.691,0.252s0.947,0.442,1.477,0.828L331.7,47.596l18.647-12.744c0.527-0.386,1.021-0.66,1.478-0.828
	c0.454-0.168,0.971-0.252,1.547-0.252c2.496,0,3.744,0.983,3.744,2.951c-0.048,0.337-0.156,0.721-0.324,1.151
	C356.624,38.306,356.154,38.787,355.391,39.314L355.391,39.314z"/>
<path fill="#B7B7B7" d="M191.032,22.818h3.424c-0.015-0.193-0.517-7.984,4.856-13.397c7.228-7.281,14.437-5.898,14.437-5.898V0.017
	c-4.25-0.13-10.412,0.285-16.608,6.579C191.089,12.738,190.904,18.496,191.032,22.818z"/>
<path fill="#B7B7B7" d="M199.025,22.818h3.463c-0.016-0.193-0.514-4.812,2.746-7.854c3.914-4.13,8.515-3.345,8.515-3.345V8.141
	c-4.817-0.146-7.563,0.594-11.013,4.159C199.529,15.616,198.898,18.496,199.025,22.818z"/>
<path fill="#B7B7B7" d="M376.411,27.68c0,4.14-3.33,7.425-7.562,7.425c-4.23,0-7.604-3.285-7.604-7.425
	c0-4.141,3.375-7.381,7.649-7.381C373.081,20.3,376.411,23.54,376.411,27.68z M363.137,27.68c0,3.284,2.475,5.895,5.76,5.895
	c3.194,0.045,5.625-2.609,5.625-5.85c0-3.285-2.431-5.939-5.715-5.939C365.609,21.785,363.137,24.439,363.137,27.68z
	 M367.682,31.504h-1.711v-7.379c0.676-0.09,1.62-0.225,2.836-0.225c1.395,0,2.024,0.225,2.52,0.584
	c0.449,0.314,0.766,0.854,0.766,1.575c0,0.898-0.676,1.484-1.531,1.755v0.09c0.721,0.225,1.08,0.811,1.308,1.801
	c0.225,1.125,0.403,1.529,0.538,1.799h-1.801c-0.225-0.27-0.358-0.898-0.584-1.799c-0.135-0.766-0.586-1.125-1.528-1.125h-0.812
	V31.504L367.682,31.504z M367.727,27.365h0.811c0.943,0,1.709-0.315,1.709-1.08c0-0.676-0.494-1.125-1.574-1.125
	c-0.451,0-0.766,0.045-0.945,0.09V27.365L367.727,27.365z"/>
</svg>
