<?xml version="1.0" encoding="utf-8"?>
<!DOCTYPE svg PUBLIC "-//W3C//DTD SVG 1.1//EN" "http://www.w3.org/Graphics/SVG/1.1/DTD/svg11.dtd">
<svg version="1.1" id="Layer_1" xmlns="http://www.w3.org/2000/svg" xmlns:xlink="http://www.w3.org/1999/xlink" x="0px" y="0px"
	 width="376.41px" height="81.65px" viewBox="0 0 376.41 81.65" enable-background="new 0 0 376.41 81.65" xml:space="preserve">
<path fill="#0096DC" d="M48.312,25.203H20.879c-8.737,0-13.104,2.617-13.104,7.848v22.032c0,5.424,4.56,8.135,13.68,8.135h26.856
	c2.399,0,3.6,0.986,3.6,2.953c0,1.969-1.201,2.951-3.6,2.951H21.095c-14.064,0-21.096-4.607-21.096-13.824V32.907
	c0-9.072,6.912-13.608,20.736-13.608h27.576c2.399,0,3.6,0.984,3.6,2.952C51.912,24.22,50.711,25.203,48.312,25.203L48.312,25.203z
	 M110.302,69.483c-2.591,0-3.887-1.008-3.887-3.025V45.436c0-3.6-3.385-5.4-10.152-5.4H70.126v26.423
	c0,2.018-1.272,3.025-3.816,3.025c-2.545,0-3.816-1.008-3.816-3.025V20.955c0-2.016,1.271-3.023,3.816-3.023
	c2.543,0,3.816,1.008,3.816,3.023v13.176h25.416c12.385,0,18.576,3.816,18.576,11.449v20.878
	C114.118,68.476,112.847,69.483,110.302,69.483L110.302,69.483z M129.742,28.659c-2.784,0-4.177-1.152-4.177-3.456
	c0-2.305,1.393-3.456,4.177-3.456c2.783,0,4.176,1.151,4.176,3.456C133.918,27.507,132.525,28.659,129.742,28.659L129.742,28.659z
	 M129.742,33.771c2.544,0,3.815,1.008,3.815,3.023v29.663c0,2.018-1.271,3.025-3.815,3.025c-2.545,0-3.816-1.008-3.816-3.025V36.795
	C125.926,34.779,127.197,33.771,129.742,33.771L129.742,33.771z M178.485,69.122h-25.416v9.504c0,2.018-1.272,3.025-3.816,3.025
	c-2.545,0-3.816-1.008-3.816-3.025V45.58c0-7.633,6.193-11.449,18.576-11.449h14.473c12.383,0,18.576,3.816,18.576,11.449v12.167
	C197.062,65.331,190.868,69.122,178.485,69.122L178.485,69.122z M189.356,45.508c0-3.648-3.553-5.473-10.655-5.473h-14.976
	c-7.105,0-10.656,1.824-10.656,5.473V63.29h25.632c7.103,0,10.655-1.822,10.655-5.471V45.508L189.356,45.508z M232.485,23.763
	h-6.121c-6.623,0-9.936,1.681-9.936,5.04v5.617h16.057c2.4,0,3.6,0.936,3.6,2.807c0,1.872-1.199,2.809-3.6,2.809h-16.057v26.423
	c0,2.018-1.225,3.025-3.672,3.025c-2.641,0-3.959-1.008-3.959-3.025V28.875c0-7.2,5.855-10.8,17.566-10.8h6.121
	c2.4,0,3.6,0.937,3.6,2.808C236.085,22.803,234.886,23.763,232.485,23.763L232.485,23.763z M276.333,69.122h-13.896
	c-12.432,0-18.646-3.791-18.646-11.375V45.58c0-7.633,6.215-11.449,18.646-11.449h13.896c12.432,0,18.648,3.816,18.648,11.449
	v12.167C294.981,65.331,288.765,69.122,276.333,69.122L276.333,69.122z M287.276,45.508c0-3.648-3.574-5.473-10.727-5.473h-14.4
	c-7.104,0-10.656,1.824-10.656,5.473v12.312c0,3.648,3.553,5.471,10.656,5.471h14.4c7.152,0,10.727-1.822,10.727-5.471V45.508
	L287.276,45.508z M355.39,39.314l-17.93,12.241l17.857,12.313c0.67,0.527,1.139,1.02,1.404,1.475
	c0.262,0.457,0.395,0.877,0.395,1.26c0,1.922-1.295,2.881-3.887,2.881c-0.576,0-1.129-0.072-1.656-0.217
	c-0.529-0.145-1.057-0.432-1.584-0.863l-18.793-12.961l-19.15,13.033c-1.01,0.719-2.018,1.055-3.025,1.008
	c-2.496,0-3.744-0.959-3.744-2.881c0-0.383,0.119-0.791,0.359-1.223c0.24-0.434,0.695-0.889,1.369-1.369l18.432-12.6l-17.352-12.024
	c-0.721-0.479-1.201-0.959-1.439-1.439c-0.242-0.479-0.361-0.912-0.361-1.296c0-1.92,1.297-2.88,3.889-2.88
	c0.672,0,1.234,0.084,1.691,0.252s0.947,0.443,1.477,0.828L331.7,47.596l18.648-12.744c0.527-0.385,1.02-0.66,1.477-0.828
	c0.455-0.168,0.971-0.252,1.547-0.252c2.496,0,3.744,0.984,3.744,2.951c-0.047,0.337-0.156,0.721-0.324,1.152
	S356.155,38.787,355.39,39.314L355.39,39.314z"/>
<path fill="#706F6F" d="M191.032,22.818h3.424c-0.014-0.193-0.516-7.984,4.857-13.397c7.227-7.282,14.436-5.899,14.436-5.899V0.017
	c-4.25-0.13-10.412,0.285-16.609,6.579C191.089,12.738,190.905,18.496,191.032,22.818z"/>
<path fill="#706F6F" d="M199.026,22.818h3.463c-0.016-0.193-0.514-4.811,2.746-7.854c3.914-4.13,8.514-3.345,8.514-3.345V8.141
	c-4.818-0.146-7.563,0.594-11.012,4.16C199.53,15.616,198.899,18.496,199.026,22.818z"/>
<path fill="#0096DC" d="M376.411,27.68c0,4.14-3.33,7.425-7.561,7.425s-7.605-3.285-7.605-7.425s3.375-7.38,7.65-7.38
	C373.081,20.3,376.411,23.54,376.411,27.68z M363.136,27.68c0,3.285,2.475,5.895,5.76,5.895c3.195,0.045,5.625-2.609,5.625-5.85
	c0-3.285-2.43-5.939-5.715-5.939C365.61,21.785,363.136,24.439,363.136,27.68z M367.681,31.504h-1.711v-7.379
	c0.676-0.09,1.621-0.225,2.836-0.225c1.395,0,2.025,0.225,2.52,0.584c0.449,0.315,0.766,0.855,0.766,1.575
	c0,0.899-0.676,1.485-1.531,1.755v0.09c0.721,0.225,1.08,0.811,1.307,1.801c0.225,1.125,0.404,1.529,0.539,1.799h-1.801
	c-0.225-0.27-0.359-0.899-0.584-1.799c-0.135-0.766-0.586-1.125-1.529-1.125h-0.811V31.504z M367.726,27.365h0.811
	c0.943,0,1.709-0.315,1.709-1.08c0-0.676-0.494-1.125-1.574-1.125c-0.451,0-0.766,0.045-0.945,0.09V27.365z"/>
</svg>
